<svg width="661" height="22" viewBox="0 0 661 22" fill="none" xmlns="http://www.w3.org/2000/svg">
<path d="M0.5 15C0.5 6.71573 7.21573 0 15.5 0H645.5C653.784 0 660.5 6.71573 660.5 15V22H0.5V15Z" fill="white"/>
<path d="M26.0949 17.114C25.2831 16.3299 24.6356 15.3919 24.1901 14.3549C23.7446 13.3179 23.5101 12.2025 23.5003 11.0739C23.4905 9.94524 23.7056 8.82596 24.133 7.78134C24.5604 6.73672 25.1915 5.78768 25.9896 4.98959C26.7877 4.1915 27.7367 3.56035 28.7813 3.13297C29.826 2.70558 30.9452 2.49051 32.0739 2.50032C33.2025 2.51013 34.3179 2.74461 35.3549 3.19009C36.3919 3.63556 37.3299 4.28311 38.114 5.09495C39.6623 6.69807 40.519 8.84519 40.4997 11.0739C40.4803 13.3025 39.5864 15.4344 38.0104 17.0104C36.4344 18.5864 34.3025 19.4803 32.0739 19.4997C29.8452 19.519 27.6981 18.6623 26.0949 17.114ZM33.2944 11.1045L35.6999 8.69895L34.5014 7.50045L32.1045 9.90595L29.6989 7.50045L28.5005 8.69895L30.906 11.1045L28.5005 13.5099L29.6989 14.7084L32.1045 12.3029L34.5099 14.7084L35.7084 13.5099L33.3029 11.1045H33.2944Z" fill="#ED4949"/>
<g clip-path="url(#clip0_97_944)">
<path d="M60.5 2.66675C65.1025 2.66675 68.8334 6.39758 68.8334 11.0001C68.8334 15.6026 65.1025 19.3334 60.5 19.3334C55.8975 19.3334 52.1667 15.6026 52.1667 11.0001C52.1667 6.39758 55.8975 2.66675 60.5 2.66675ZM63.8334 10.1667H57.1667C56.9457 10.1667 56.7337 10.2545 56.5774 10.4108C56.4212 10.5671 56.3334 10.7791 56.3334 11.0001C56.3334 11.2211 56.4212 11.4331 56.5774 11.5893C56.7337 11.7456 56.9457 11.8334 57.1667 11.8334H63.8334C64.0544 11.8334 64.2663 11.7456 64.4226 11.5893C64.5789 11.4331 64.6667 11.2211 64.6667 11.0001C64.6667 10.7791 64.5789 10.5671 64.4226 10.4108C64.2663 10.2545 64.0544 10.1667 63.8334 10.1667Z" fill="#F4BF4F"/>
</g>
<path d="M80.5 11C80.5 6.30558 84.3056 2.5 89 2.5C93.6944 2.5 97.5 6.30558 97.5 11C97.5 15.6944 93.6944 19.5 89 19.5C84.3056 19.5 80.5 15.6944 80.5 11Z" fill="#28C24A"/>
<g clip-path="url(#clip1_97_944)">
<path d="M90.25 9.75008L92.3334 7.66675M92.3334 7.66675V9.33341M92.3334 7.66675H90.6667M87.75 12.2501L85.6667 14.3334M85.6667 14.3334V12.6667M85.6667 14.3334H87.3334" stroke="#3F72AF" stroke-width="1.5" stroke-linecap="round" stroke-linejoin="round"/>
</g>
<defs>
<clipPath id="clip0_97_944">
<rect width="20" height="20" fill="white" transform="translate(50.5 1)"/>
</clipPath>
<clipPath id="clip1_97_944">
<rect width="10" height="10" fill="white" transform="translate(84 6)"/>
</clipPath>
</defs>
</svg>
